<svg width="148" height="53" viewBox="0 0 148 53" fill="none" xmlns="http://www.w3.org/2000/svg">
<path d="M1.97386 20.0863L1.97677 20.0733C1.98023 20.0581 1.98583 20.0342 1.99379 20.0021C2.00971 19.9378 2.03503 19.8408 2.07153 19.7151C2.14456 19.4637 2.26217 19.0981 2.43839 18.6516C2.79109 17.7577 3.37687 16.5435 4.30654 15.2705C6.15983 12.7328 9.38931 9.94584 14.9191 9.00273L14.9191 9.00273C17.7186 8.52522 26.5254 7.9901 38.3949 7.39936C45.5111 7.04519 53.7088 6.67174 62.339 6.27859C68.0796 6.01708 74.0115 5.74685 79.9437 5.46778C94.7912 4.76931 109.638 4.01557 121.473 3.20516C127.39 2.79997 132.558 2.38033 136.6 1.94588C140.621 1.51363 143.578 1.06201 145.035 0.580061C145.4 0.459413 145.663 0.487434 145.868 0.58239C146.084 0.682766 146.298 0.887851 146.5 1.23248C146.91 1.9345 147.174 3.05512 147.325 4.38384C147.592 6.72222 147.49 9.47708 147.429 11.1337C147.421 11.3452 147.414 11.5388 147.409 11.7114C147.36 13.2115 147.051 20.4645 146.66 27.745C146.465 31.3849 146.25 35.0288 146.037 37.9621C145.822 40.9187 145.613 43.0993 145.437 43.855L145.437 43.8552C145.35 44.2276 145.28 44.6318 145.209 45.0392C145.2 45.0896 145.192 45.1401 145.183 45.1906C145.101 45.6551 145.015 46.1294 144.897 46.6078C144.662 47.5627 144.305 48.5113 143.639 49.3598C142.325 51.0352 139.678 52.4722 133.842 52.5C133.841 52.5 133.841 52.5 133.84 52.5L15.5331 52.2593L15.5291 52.2591L15.5086 52.2579C15.4864 52.2566 15.4526 52.2545 15.408 52.2513C15.3187 52.245 15.186 52.2346 15.0155 52.2185C14.6744 52.1863 14.1826 52.1311 13.5851 52.0397C12.3884 51.8566 10.7753 51.5293 9.1019 50.9535C5.72751 49.7924 2.25589 47.6755 1.26749 43.8452C0.238383 39.8544 0.403712 33.9364 0.841835 28.962C1.05992 26.4859 1.34358 24.263 1.57276 22.6591C1.68732 21.8573 1.7882 21.2107 1.86036 20.7649C1.89643 20.5421 1.92532 20.3695 1.94514 20.2529L1.96784 20.1207L1.97365 20.0875L1.97386 20.0863Z" fill="#C4E538" stroke="#232322"/>
</svg>
